<?xml version="1.0" encoding="utf-8"?>
<!-- Generator: Adobe Illustrator 24.3.0, SVG Export Plug-In . SVG Version: 6.00 Build 0)  -->
<svg version="1.1" id="Capa_1" xmlns="http://www.w3.org/2000/svg" xmlns:xlink="http://www.w3.org/1999/xlink" x="0px" y="0px"
	 viewBox="0 0 200 200" style="enable-background:new 0 0 200 200;" xml:space="preserve">
<style type="text/css">
	.st0{stroke:#000000;stroke-width:0.5;stroke-linecap:round;stroke-linejoin:round;stroke-miterlimit:10;}
</style>
<polygon points="128.07,167.47 103.16,180.27 103.16,107.63 128.07,97.93 "/>
<polygon points="103.16,180.27 78.18,167.28 78.18,97.93 103.16,107.82 "/>
<g>
	<polygon points="35.2,53.82 78.18,68.59 78.18,38.45 35.2,26 	"/>
</g>
<g>
	<path d="M50.91,22.29l42.73,11.59L78.4,37.9L35.82,25.71L50.91,22.29 M50.69,21.31L35.6,24.73l-0.05,1.94l42.58,12.19l0.53,0.01
		l15.24-4.02l0.01-1.93L51.17,21.32L50.69,21.31L50.69,21.31z"/>
</g>
<g>
	<polygon points="78.18,68.59 94.66,63.72 94.66,33.88 78.18,37.98 	"/>
</g>
<polygon points="104.73,30.24 112.82,32.62 112.82,22.44 104.73,20.5 "/>
<polygon points="126.49,28.13 112.82,32.62 112.82,22.38 126.49,18.7 "/>
<polygon points="126.49,18.7 118.65,17 104.73,20.5 112.65,22.49 "/>
<polygon points="52.22,81.25 68.55,86.87 68.55,75.41 52.22,70.68 "/>
<polygon class="st0" points="74.43,73.67 58.19,69.27 52.46,70.57 68.64,75.2 "/>
<polygon class="st0" points="68.55,86.87 74.43,85.01 74.43,73.67 68.55,75.23 "/>
<g>
	<path d="M103.13,89.92l22.13,8.05l-22.13,8.76L81,97.97L103.13,89.92 M103.13,88.86l-24.95,9.07l24.94,9.88l24.95-9.88
		L103.13,88.86L103.13,88.86z"/>
</g>
<g>
	<polygon points="101.83,75.53 101.49,75.05 101.49,45.63 102.12,45.15 128.21,52.47 128.57,52.95 128.57,83.63 127.91,84.11 	"/>
	<path d="M101.99,45.63l26.08,7.32v30.68l-26.08-8.58V45.63 M102.26,44.66l-1.27,0.96v29.42l0.69,0.95l26.08,8.58l1.31-0.95V52.95
		l-0.73-0.96L102.26,44.66L102.26,44.66z"/>
</g>
<g>
	<path d="M168.47,40.44v28.91l-40.4,14.28V52.54L168.47,40.44 M168.18,39.48l-40.4,12.1l-0.71,0.96v31.09l1.33,0.94l40.4-14.28
		l0.67-0.94V40.44L168.18,39.48L168.18,39.48z"/>
</g>
<g>
	<path d="M143.68,34.45l23.49,5.54l-40.34,11.88l-23.68-6.42L143.68,34.45 M143.68,33.45c-0.09,0-0.18,0.01-0.26,0.03l-40.53,10.99
		c-0.44,0.12-0.74,0.51-0.74,0.97c0,0.45,0.3,0.85,0.74,0.97l23.68,6.42c0.09,0.02,0.17,0.03,0.26,0.03c0.1,0,0.19-0.01,0.28-0.04
		l40.34-11.88c0.44-0.13,0.73-0.53,0.72-0.99c-0.01-0.45-0.33-0.84-0.77-0.95l-23.49-5.54C143.84,33.46,143.76,33.45,143.68,33.45
		L143.68,33.45z"/>
</g>
</svg>
